# Blender 4.2.0
# www.blender.org
mtllib bridge-broken.mtl
o Cube
v -9.103947 -1.000000 2.685875
v -8.755311 1.349460 2.685875
v -9.103947 -1.000000 -2.685875
v -8.755311 1.349460 -2.685875
v -7.103947 -1.000000 2.214271
v -6.840183 0.773020 2.214271
v -7.103947 -1.000000 -2.214271
v -6.840183 0.773020 -2.214271
v -8.318497 4.476872 2.685875
v -8.318497 4.476873 -2.685875
v -5.809773 2.669273 -2.214271
v -5.809772 2.669273 2.214271
v -5.159090 5.125452 2.214272
v -5.159091 5.125453 -2.214272
v -4.134382 4.114417 -2.214271
v -4.134382 4.114416 2.214272
v 9.998615 5.247259 1.917706
v 9.998615 5.247260 -1.872084
v 8.843262 3.975103 -1.872084
v 8.843262 3.975102 1.917706
v 12.741100 4.549288 2.214269
v 12.741100 4.549289 -2.214273
v 10.603670 2.645282 -2.214273
v 10.603672 2.645281 2.214269
v 13.544294 1.890684 2.214269
v 13.544294 1.890684 -2.214273
v 11.701960 1.112349 -2.214273
v 11.701960 1.112349 2.214269
v 14.151663 -0.534575 2.214269
v 14.151663 -0.534574 -2.214274
v 12.237856 -0.498727 -2.214274
v 12.237856 -0.498728 2.214269
v -11.294612 -0.972916 2.685875
v -11.305559 1.402245 2.685875
v -11.305559 1.402245 -2.685875
v -11.294612 -0.972916 -2.685875
v -11.347077 3.840298 2.685875
v -11.347078 3.840299 -2.685875
v -11.347078 3.840299 -2.685875
v -11.347077 3.840298 2.685875
v 14.895473 4.106687 2.214269
v 14.895473 4.106688 -2.214273
v 15.698666 1.448082 2.214269
v 15.698666 1.448083 -2.214273
v 16.306034 -0.600325 2.214269
v 16.306034 -0.600324 -2.214274
v 16.232368 3.793444 2.338996
v 16.232368 3.793445 -2.312337
v 17.035561 1.448082 2.338995
v 17.035561 1.448083 -2.312338
v 17.642929 -0.600325 2.338995
v 17.642929 -0.600324 -2.312338
v -9.103947 -1.000000 2.109911
v -6.840183 0.773020 1.739439
v -7.103947 -1.000000 1.739439
v -8.318497 4.476872 2.109911
v -5.809772 2.669273 1.739439
v -5.159090 5.125452 1.739439
v -4.134382 4.114416 1.739439
v 9.998615 5.247259 1.511361
v 8.843262 3.975102 1.511361
v 12.741100 4.549288 1.739437
v 10.603672 2.645281 1.739437
v 11.701960 1.112349 1.739436
v 14.151663 -0.534574 1.739436
v 12.237856 -0.498728 1.739436
v -11.305559 1.402245 2.109911
v -11.294612 -0.972916 2.109911
v -11.347077 3.840298 2.109911
v 14.895473 4.106687 1.739437
v 16.306034 -0.600325 1.739436
v 16.232368 3.793444 1.840275
v 17.035561 1.448082 1.840275
v 17.642929 -0.600324 1.840275
v -7.103947 -1.000000 -1.649013
v -8.318497 4.476873 -2.000226
v -5.159091 5.125453 -1.649012
v 9.998615 5.247260 -1.388355
v 12.741100 4.549289 -1.649015
v 14.151663 -0.534574 -1.649015
v -11.305559 1.402245 -2.000226
v -11.347078 3.840299 -2.000226
v 14.895473 4.106688 -1.649015
v 16.306034 -0.600324 -1.649015
v 16.232368 3.793445 -1.718642
v 17.035561 1.448082 -1.718642
v 17.642929 -0.600324 -1.718642
v -9.103947 -1.000000 -2.000226
v -6.840183 0.773020 -1.649013
v -5.809773 2.669273 -1.649013
v -4.134382 4.114417 -1.649012
v 8.843262 3.975103 -1.388355
v 10.603670 2.645282 -1.649015
v 11.701960 1.112349 -1.649015
v 12.237856 -0.498727 -1.649015
v -11.294612 -0.972916 -2.000226
v -8.315836 4.544656 2.685875
v -5.156429 5.264395 2.214272
v 10.001276 5.504182 1.917706
v 12.743761 4.640840 2.214269
v 14.898134 4.198238 2.214269
v -8.315836 4.544656 2.109911
v -5.156429 5.264395 1.739439
v 10.001276 5.420540 1.511361
v 12.743761 4.640840 1.739437
v 14.898134 4.198238 1.739437
v -5.182843 5.373244 2.214272
v -5.182843 5.373244 1.739439
v -8.315836 4.574945 -2.000226
v -8.315836 4.574945 -2.685875
v -5.156429 5.432530 -1.649012
v -5.156429 5.432530 -2.214272
v 10.001276 5.547451 -1.388355
v 10.001276 5.547451 -1.872084
v 12.743761 4.688260 -1.649015
v 12.743761 4.688260 -2.214273
v 14.898134 4.245658 -2.214273
v 14.898134 4.245658 -1.649015
v -8.403082 3.871275 2.685875
v -8.403083 3.871276 -2.685875
v -6.009303 2.302079 2.214271
v -6.009303 2.302079 -2.214271
v -11.339038 3.368190 2.685875
v -11.339039 3.368190 -2.685875
v -6.009303 2.302079 1.739439
v -6.009303 2.302079 -1.649013
v -7.619324 1.007536 -2.406136
v -7.917616 -1.000000 -2.406136
v -7.619323 1.007536 2.406136
v -7.917616 -1.000000 2.406136
v -6.830409 3.404667 -2.406136
v -6.830408 3.404666 2.406136
v -4.551269 4.525741 -2.214271
v -4.551269 4.525741 2.214272
v 9.313299 4.492660 -1.872084
v 9.313299 4.492659 1.917706
v 11.473251 3.419898 -2.214273
v 11.473251 3.419897 2.214269
v 12.451485 1.429003 -2.214273
v 12.451485 1.429002 2.214269
v 13.016459 -0.513311 -2.214274
v 13.016459 -0.513311 2.214269
v 13.016459 -0.513311 1.739436
v -7.917616 -1.000000 1.890159
v 13.016459 -0.513311 -1.649015
v -7.917616 -1.000000 -1.791898
v -6.983175 2.940483 -2.406136
v -6.983174 2.940482 2.406136
v -5.767090 2.646811 1.780519
v -5.767090 2.646811 2.255351
v -5.966620 2.279618 2.255351
v -5.966620 2.279618 1.780519
v -6.787725 3.382205 2.447216
v -6.940493 2.918021 2.447216
v -3.718735 4.302211 2.153580
v -4.640748 5.251235 2.153579
v -4.640748 5.251236 -2.144243
v -3.718735 4.302211 -2.144243
v -4.640748 5.251235 2.153579
v -4.640748 5.251235 1.692763
v -3.718735 4.302211 1.692763
v -4.640748 5.251236 -1.595669
v -3.718736 4.302211 -1.595669
v -4.638087 5.390178 2.153579
v -4.638087 5.390178 1.692763
v -4.664501 5.499027 2.153579
v -4.664501 5.499027 1.692763
v -4.638087 5.523911 -2.144243
v -4.638087 5.523911 -1.595669
v -4.093842 4.688308 -2.144243
v -4.093841 4.688307 2.153580
v -5.363133 3.054531 -2.214271
v -5.363133 3.054531 2.214272
v -7.476235 4.649776 2.560151
v -7.476236 4.649777 -2.560151
v -7.476236 4.649776 2.011147
v -5.363133 3.054531 1.739439
v -7.476236 4.649777 -1.906596
v -5.363133 3.054531 -1.649013
v -7.473576 4.736530 2.560151
v -7.473576 4.736530 2.011147
v -7.473576 4.803567 -2.560152
v -7.473576 4.803567 -1.906596
v -6.222816 3.703532 -2.354987
v -6.222816 3.703532 2.354987
v -4.970145 3.393512 -2.214271
v -6.735148 4.801910 2.449528
v -6.735149 4.801910 1.924247
v -4.970144 3.393512 1.739439
v -6.735149 4.801911 -1.824214
v -4.970145 3.393512 -1.649013
v -6.732489 4.905356 2.449528
v -6.732489 4.905356 1.924247
v -6.732489 5.004727 -1.824214
v -5.688210 3.966497 -2.309982
v -5.688209 3.966497 2.309982
v -4.970144 3.393512 2.214272
v -6.735149 4.801911 -2.449529
v -6.732489 5.004727 -2.449529
v -6.735149 4.801910 1.924247
v -6.735149 4.801910 1.924247
v -6.732489 4.905356 1.924247
v -6.732489 4.905356 1.924247
v -6.735149 4.801911 -2.449529
v -6.735149 4.801911 -2.449529
v -6.732489 5.004727 -2.449529
v -6.732489 5.004727 -2.449529
v -5.688209 3.966497 2.309982
v -5.688209 3.966497 2.309982
v -6.735148 4.801910 2.449528
v -6.735148 4.801910 2.449528
v -5.688210 3.966497 -2.309982
v -5.688210 3.966497 -2.309982
v -4.970145 3.393512 -2.214271
v -4.970145 3.393512 -2.214271
v -6.735149 4.801911 -1.824214
v -6.735149 4.801911 -1.824214
v -6.732489 5.004727 -1.824214
v -6.732489 5.004727 -1.824214
v -6.732489 4.905356 2.449528
v -6.732489 4.905356 2.449528
v -4.970145 3.393512 -1.649013
v -4.970145 3.393512 -1.649013
v -4.970144 3.393512 1.739439
v -4.970144 3.393512 1.739439
v -4.970144 3.393512 2.214272
v -4.970144 3.393512 2.214272
v 11.408529 1.521902 -2.214273
v 11.408531 1.521902 2.214269
v 13.329704 2.600982 2.214269
v 13.329704 2.600983 -2.214273
v 15.484077 2.158381 2.214269
v 15.484077 2.158382 -2.214273
v 16.820972 2.074692 2.338995
v 16.820972 2.074693 -2.312338
v 16.820972 2.074692 1.840275
v 11.408531 1.521902 1.739437
v 16.820972 2.074692 -1.718642
v 11.408529 1.521902 -1.649015
v 12.190130 1.960910 -2.214273
v 12.190130 1.960909 2.214269
v 10.233942 2.924577 2.151983
v 12.165108 4.695880 2.151983
v 12.165108 4.695881 -2.142405
v 10.233940 2.924578 -2.142405
v 12.165108 4.695880 1.691535
v 10.233940 2.924577 1.691535
v 12.165108 4.695881 -1.594270
v 10.233938 2.924578 -1.594270
v 12.167770 4.822164 2.151983
v 12.167768 4.804597 1.691535
v 12.167770 4.868712 -2.142406
v 12.167770 4.868712 -1.594270
v 11.019608 3.645205 -2.142405
v 11.019608 3.645205 2.151983
v -8.510781 -1.000000 -2.546006
v -8.187317 1.178498 2.546006
v -7.574452 3.940769 2.546006
v -4.855179 4.825596 2.214272
v 9.655956 4.869959 1.917706
v 12.107176 3.984593 2.214269
v 12.997890 1.659843 2.214269
v 13.584061 -0.523943 2.214269
v 13.584061 -0.523943 1.739436
v 13.584061 -0.523942 -1.649015
v -7.693129 3.405879 2.546006
v -8.187317 1.178498 -2.546006
v -8.510781 -1.000000 2.546006
v -7.574453 3.940770 -2.546006
v -4.855180 4.825597 -2.214272
v 9.655956 4.869960 -1.872084
v 12.107176 3.984593 -2.214273
v 12.997890 1.659844 -2.214273
v 13.584061 -0.523942 -2.214274
v -8.510781 -1.000000 2.000035
v -8.510781 -1.000000 -1.896062
v -7.693129 3.405879 -2.546006
v -4.367294 4.969771 2.153579
v -4.367295 4.969772 -2.144243
v -6.849526 4.176654 2.457569
v -6.849526 4.176655 -2.457569
v -6.211679 4.384204 2.379756
v -6.211679 4.384204 -2.379756
v -6.211679 4.384204 -2.379756
v -6.211679 4.384204 2.379756
v -6.211679 4.384204 2.379756
v -6.211679 4.384204 -2.379756
v 12.759918 2.280946 2.214269
v 12.759918 2.280947 -2.214273
v 11.592358 4.170542 2.151983
v 11.592358 4.170543 -2.142405
v 10.755705 5.054577 1.999575
v 9.329239 3.607993 -1.966548
v 10.758366 5.265849 1.999575
v 9.329239 3.607992 1.999575
v 10.755705 5.054578 -1.966548
v 10.755705 5.054577 1.574323
v 9.329239 3.607992 1.574323
v 10.755705 5.054578 -1.460313
v 9.329239 3.607993 -1.460313
v 10.758366 5.205296 1.574323
v 10.758366 5.310264 -1.966548
v 10.758366 5.310264 -1.460313
v 9.909576 4.196514 -1.966548
v 9.909576 4.196513 1.999575
v 10.332640 4.625546 -1.966548
v 10.332640 4.625545 1.999575
v 11.622864 1.088220 1.822294
v 11.622864 1.088220 2.297127
v 11.329437 1.497773 1.822295
v 12.372391 1.404874 2.297127
v 12.111034 1.936781 2.297127
v 11.329437 1.497773 2.297127
v 12.918797 1.635714 2.297127
v 12.680824 2.256817 2.297127
v 10.564142 2.605355 1.796044
v 10.564142 2.605355 2.270877
v 10.194412 2.884651 2.208591
v 10.194410 2.884651 1.748142
v 11.433722 3.379971 2.270877
v 10.980078 3.605278 2.208591
v 8.816547 3.954046 1.578560
v 8.816547 3.954046 1.984905
v 9.286585 4.471602 1.984905
v 9.629242 4.848902 1.984905
v 9.302525 3.586936 2.066775
v 9.302525 3.586936 1.641523
v 9.882862 4.175456 2.066775
v 10.305925 4.604488 2.066775
v 9.278358 3.558540 -1.531343
v 10.183056 2.875126 -1.665300
v 9.858696 4.147061 -2.037579
v 10.968727 3.595753 -2.213435
v 10.183060 2.875126 -2.213435
v 9.278358 3.558540 -2.037579
v 12.384113 1.380734 -2.297151
v 11.634590 1.064081 -2.297151
v 11.341160 1.473634 -2.297151
v 11.634590 1.064080 -1.731892
v 11.341160 1.473634 -1.731892
v 12.122761 1.912641 -2.297151
v 13.519543 1.904614 -2.292868
v 13.318701 2.569407 -2.292868
v 13.008144 1.688562 -2.292868
v 12.785418 2.269874 -2.292868
v 8.489000 5.499810 1.829415
v 8.489000 5.499810 1.443187
v 8.489000 5.499811 -1.312975
v 8.491663 5.756734 1.829414
v 8.491663 5.673091 1.443187
v 8.491663 5.800003 -1.312976
v 8.218933 5.222705 1.829415
v 8.489000 5.499811 -1.772756
v 8.491663 5.780838 -1.772756
v 10.548853 2.572715 -1.649015
v 10.548855 2.572714 1.739437
v 10.179123 2.852010 1.691535
v 10.179121 2.852011 -1.594270
v -5.305056 2.990181 1.816624
v -5.305056 2.990181 2.291456
v -6.164739 3.639182 2.432172
v -5.630132 3.902147 2.387167
v -4.912067 3.329162 1.816624
v -4.912067 3.329162 2.291456
v -4.086556 4.038155 1.832274
v -4.086556 4.038155 2.307106
v -4.503443 4.449480 2.307106
v -3.670909 4.225950 2.246415
v -3.670909 4.225950 1.785598
v -4.046015 4.612046 2.246415
v -4.513901 4.468878 -2.284541
v -4.097014 4.057553 -2.284541
v -4.097014 4.057553 -1.719282
v -3.681367 4.245348 -1.665939
v -4.056474 4.631444 -2.107460
v -6.778047 3.346231 -2.474277
v -5.757411 2.610837 -2.282413
v -5.757411 2.610837 -1.717154
v -5.310771 2.996095 -2.282413
v -5.310771 2.996095 -1.717154
v -6.170454 3.645096 -2.423129
v -8.938759 0.113205 2.685875
v -8.938759 0.113205 -2.685875
v -6.978971 -0.159920 -2.214271
v -6.978971 -0.159920 2.214271
v -11.299799 0.152467 2.685875
v -11.299799 0.152467 -2.685875
v -11.299799 0.152467 2.109911
v -6.978971 -0.159920 1.739439
v -6.978971 -0.159920 -1.649013
v -11.299799 0.152467 -2.000226
v -7.776280 -0.048803 2.406136
v -7.776280 -0.048803 -2.406136
v -8.357520 0.032201 -2.546006
v -8.357520 0.032201 2.546006
v -6.900157 -0.171641 2.320177
v -7.025132 -1.011721 2.320177
v -7.838801 -1.011721 2.512042
v -7.025132 -1.011721 1.845345
v -6.900157 -0.171641 1.845345
v -8.431967 -1.011721 2.651912
v -7.697466 -0.060524 2.512042
v -8.278706 0.020480 2.651912
v -6.855428 -0.178297 -2.312901
v -6.980402 -1.018377 -2.312901
v -6.980402 -1.018377 -1.747642
v -6.855428 -0.178297 -1.747642
v -7.794071 -1.018377 -2.504766
v -7.652737 -0.067180 -2.504766
vn -0.0124 -0.9999 -0.0000
vn -0.6130 0.0911 -0.7848
vn -0.7904 0.1174 0.6012
vn 0.2294 -0.0340 0.9727
vn -0.0000 -1.0000 -0.0000
vn -0.0000 -0.0000 1.0000
vn -0.0000 -0.0000 -0.0000
vn 0.5698 -0.3096 -0.7613
vn 0.1688 -0.0301 -0.9852
vn 0.8787 -0.4775 -0.0000
vn -0.0583 0.0006 0.9983
vn -0.0000 -0.0000 -1.0000
vn -0.1173 0.0040 -0.9931
vn 0.0825 -0.0014 -0.9966
vn 0.2545 0.6976 0.6698
vn -0.7556 0.6550 -0.0000
vn -0.5748 -0.4118 0.7071
vn -0.0975 0.1079 -0.9894
vn -0.6028 -0.7979 -0.0000
vn 0.2918 -0.9565 -0.0000
vn 0.9286 0.2806 -0.2427
vn -0.0187 -0.9998 -0.0000
vn -0.9489 -0.3156 -0.0000
vn -1.0000 -0.0046 -0.0000
vn -0.9999 -0.0170 -0.0000
vn -0.2057 0.9786 -0.0000
vn -0.0768 -0.0246 -0.9967
vn -0.0929 -0.0275 0.9953
vn -0.0305 -0.9995 -0.0000
vn 0.9461 0.3240 -0.0000
vn 0.9587 0.2843 -0.0000
vn -0.0731 -0.0217 -0.9971
vn -0.0938 -0.0301 0.9951
vn 0.2281 0.9736 -0.0000
vn 0.2012 0.9795 -0.0000
vn 0.2466 0.9691 -0.0000
vn 0.7106 -0.7036 -0.0000
vn 0.6618 0.2536 0.7055
vn 0.1650 0.9863 -0.0000
vn -0.6209 0.2043 0.7568
vn 0.9891 -0.1471 -0.0000
vn 0.1401 0.9901 -0.0089
vn -0.9996 0.0271 -0.0000
vn 0.1341 -0.0012 -0.9910
vn -0.7979 0.6028 -0.0000
vn -0.8129 -0.5824 -0.0000
vn -0.9718 -0.2358 -0.0000
vn 0.1718 0.9639 -0.2034
vn 0.2885 0.9573 -0.0180
vn -0.1068 0.0026 0.9943
vn -0.9992 0.0392 -0.0000
vn -0.0901 0.0017 -0.9959
vn 0.9996 -0.0291 -0.0000
vn -0.0847 -0.0206 -0.9962
vn 0.1577 0.9873 -0.0201
vn 0.2990 0.9543 -0.0000
vn 0.1484 -0.0031 -0.9889
vn 0.0498 -0.0004 0.9988
vn 0.0942 -0.0016 0.9956
vn -0.1235 0.0012 -0.9923
vn 0.9998 -0.0192 -0.0000
vn 0.1970 -0.0351 -0.9798
vn 0.1774 -0.0752 0.9813
vn 0.1891 -0.0514 0.9806
vn 0.1774 -0.0752 -0.9813
vn -0.4868 0.8667 -0.1091
vn 0.3871 -0.9163 0.1027
vn -0.1028 0.1138 -0.9882
vn -0.8259 0.5638 -0.0002
vn -0.0868 0.0960 0.9916
vn 0.1470 -0.0623 -0.9872
vn 0.1598 -0.0434 0.9862
vn 0.1394 0.9902 0.0058
vn 0.2294 -0.0341 -0.9727
vn 0.1470 -0.0623 0.9872
vn 0.4657 0.8849 -0.0000
vn -0.4657 -0.8850 -0.0000
vn 0.5618 0.8157 -0.1378
vn -0.5328 -0.8410 0.0938
vn 0.0962 0.0956 0.9908
vn -0.1736 0.9848 -0.0000
vn 0.1099 0.0267 0.9936
vn -0.2358 0.9718 -0.0000
vn 0.1168 -0.0022 0.9931
vn 0.4117 -0.9113 -0.0000
vn -0.1026 0.0009 0.9947
vn -0.1657 0.7184 0.6756
vn -0.6884 -0.6977 0.1985
vn 0.1086 0.1079 -0.9882
vn -0.6855 -0.6948 -0.2176
vn 0.1289 -0.0627 0.9897
vn 0.7448 0.6673 -0.0000
vn -0.1110 0.0023 0.9938
vn -0.2620 0.9651 -0.0000
vn -0.2221 0.9750 -0.0000
vn 0.6532 -0.7572 -0.0000
vn -0.2011 0.9796 -0.0000
vn 0.1487 -0.0051 0.9889
vn 0.1455 -0.0399 -0.9886
vn 0.1076 -0.0917 0.9900
vn 0.4283 -0.4966 0.7550
vn -0.1172 0.0033 -0.9931
vn -0.1170 0.0026 -0.9931
vn 0.1481 -0.0022 -0.9890
vn 0.1235 0.0460 -0.9913
vn 0.1480 -0.0015 -0.9890
vn 0.0978 0.0160 0.9951
vn -0.7424 -0.6700 -0.0000
vn 0.1483 -0.0033 0.9889
vn 0.1192 -0.0381 0.9921
vn 0.0637 -0.0236 -0.9977
vn 0.1386 -0.0126 -0.9903
vn 0.0941 -0.0707 -0.9931
vn -0.1108 0.0012 0.9938
vn -0.1109 0.0017 0.9938
vn 0.1485 -0.0042 0.9889
vn 0.6286 0.7608 0.1613
vn 0.0637 -0.0236 0.9977
vn -0.0975 -0.0313 0.9947
vn -0.0739 -0.0237 -0.9970
vn -0.0884 0.0922 0.9918
vn 0.6757 -0.7366 0.0289
vn -0.1232 0.0021 -0.9924
vn 0.0943 -0.0012 0.9955
vn -0.1070 0.0017 0.9943
vn 0.2933 0.9523 -0.0840
vn -0.7119 0.7020 0.0212
vn -0.0989 0.1032 -0.9897
vn -0.0915 0.0954 0.9912
vn 0.0823 -0.0022 -0.9966
vn -0.1017 0.1061 -0.9891
vn -0.0860 0.0897 0.9923
vn 0.1192 -0.0381 -0.9921
vn 0.1386 -0.0126 0.9903
vn 0.1235 0.0460 0.9913
vn 0.0978 0.0160 -0.9951
vn 0.1289 -0.0627 -0.9897
vn 0.1455 -0.0399 0.9886
vn 0.1107 0.1099 -0.9878
vn 0.0944 0.0938 0.9911
vn 0.2294 -0.0340 -0.9727
vn 0.1688 -0.0301 0.9852
vn -0.0847 0.0938 0.9920
vn -0.0501 0.0469 0.9976
vn 0.1970 -0.0351 0.9798
vn 0.1891 -0.0514 -0.9806
vn -0.0998 0.1105 -0.9888
vn 0.9418 0.3324 0.0507
vn 0.7379 0.6749 -0.0000
vn 0.1598 -0.0434 -0.9862
vn 0.7904 -0.1176 -0.6012
vn -0.0879 0.0835 0.9926
vn -0.1047 0.0994 -0.9895
vn 0.2721 0.8821 0.3846
vn -0.1012 0.0961 -0.9902
vn -0.5063 -0.7448 -0.4346
vn 0.2974 0.9407 -0.1631
vn -0.1072 0.0012 0.9942
vn 0.0944 -0.0009 0.9955
vn -0.1091 0.1036 -0.9886
vn -0.6190 0.7854 -0.0000
vn -0.1234 0.0015 -0.9924
vn 0.0824 -0.0017 -0.9966
vn -0.4789 0.8526 -0.2089
vn -0.4789 0.8527 -0.2089
vn -0.2918 0.9565 -0.0000
vn -0.5907 -0.4232 -0.6871
vn -0.0893 0.0989 0.9911
vn -0.6752 0.7361 0.0477
vn 0.6639 -0.7453 -0.0620
vn -0.7106 0.7036 -0.0000
vn -0.3741 -0.6144 -0.6946
vn -0.0948 0.0900 0.9914
vn -0.0909 0.0864 0.9921
vn -0.7377 0.6700 -0.0833
vn 0.6190 -0.7854 -0.0000
vn 0.7106 -0.7007 0.0629
vn -0.1052 0.1098 -0.9884
vn 0.6970 -0.7171 -0.0000
vn -0.6970 0.7171 -0.0000
vn -0.3658 -0.6203 0.6939
vn 0.2446 0.7048 -0.6659
vn -0.5824 0.8129 -0.0000
vn 0.3801 -0.8996 0.2150
vn 0.5824 -0.8129 -0.0000
vn 0.6390 0.3140 -0.7023
vn -0.4714 0.8392 -0.2712
vn 0.3742 -0.8857 -0.2748
vn -0.9054 -0.3469 -0.2449
vn 0.0450 -0.0007 -0.9990
vn -0.0656 0.0006 -0.9978
vn 0.0722 -0.1386 -0.9877
vn -0.0569 0.0517 -0.9970
vn 0.4247 -0.8949 -0.1372
vn 0.2054 0.1682 -0.9641
vn 0.7979 -0.6028 -0.0000
vn -0.0936 0.0707 -0.9931
vn -0.0821 0.0620 0.9947
vn 0.0941 -0.0707 0.9931
vn -0.2539 0.6403 0.7249
vn -0.6113 -0.7702 -0.1822
vn 0.4344 -0.5036 -0.7468
vn 0.7424 0.6700 -0.0000
vn 0.0984 0.0978 0.9903
vn 0.7029 0.6829 0.1989
vn -0.8472 -0.5313 -0.0000
vn 0.8472 0.5313 -0.0000
vn 0.2341 -0.6886 -0.6863
vn 0.2263 -0.6948 0.6826
vn 0.1243 0.3546 -0.9267
vn -0.8357 -0.5492 -0.0000
vn 0.1076 -0.0917 -0.9900
vn -0.5972 -0.7752 0.2058
vn -0.2492 0.6322 -0.7336
vn -0.7448 -0.6673 -0.0000
vn 0.6112 0.7685 -0.1894
vn 0.2293 -0.0341 0.9728
vn 0.2293 -0.0340 -0.9728
vn 0.2293 -0.0341 -0.9728
vn 0.2293 -0.0340 0.9728
vn 0.2294 -0.0341 0.9727
vn -0.1471 -0.9891 -0.0000
vn -0.0221 -0.9954 -0.0937
vn 0.1471 0.9891 -0.0000
vn 0.6130 -0.0912 0.7848
vn -0.0336 -0.9893 0.1423
vt 1.008742 1.416177
vt 1.008744 1.471201
vt 0.860009 1.471202
vt 0.860008 1.416177
vt 0.858101 0.728123
vt 0.793634 0.713635
vt 0.795040 0.702059
vt 0.859508 0.716548
vt 0.127657 1.444025
vt 0.127657 1.346824
vt 0.134783 1.345105
vt 0.134783 1.442306
vt 0.833088 -0.677667
vt 0.838943 -0.621830
vt 0.763495 -0.604899
vt 0.763130 -0.661959
vt 1.089277 1.043417
vt 1.089275 0.984736
vt 1.144520 1.003063
vt 1.144522 1.057064
vt 1.093663 -0.676888
vt 1.134712 -0.685594
vt 1.093796 -0.395761
vt 1.061740 -0.396037
vt -0.586350 -1.010844
vt 1.078900 0.274262
vt 1.078900 0.234345
vt 1.082213 0.234209
vt 1.082213 0.274126
vt 0.559259 0.702386
vt 0.527222 0.769997
vt 0.486173 0.761288
vt 0.523036 0.690495
vt 0.477198 1.429940
vt 0.477230 1.483940
vt 0.451600 1.483819
vt 0.451568 1.429819
vt -0.563509 0.395922
vt -0.569299 0.541604
vt -0.586350 0.536428
vt -0.580561 0.390746
vt 1.331921 0.441650
vt 1.315555 0.650461
vt 1.309350 0.651020
vt 1.325716 0.442209
vt 1.154014 1.260491
vt 1.155270 1.178608
vt 1.159717 1.180289
vt 1.159717 1.262574
vt 1.294023 0.844083
vt 1.285812 0.917916
vt 1.274082 0.919201
vt 1.283818 0.845167
vt -0.470062 0.716702
vt -0.478254 0.669868
vt -0.474956 0.666874
vt -0.466764 0.713708
vt 0.000000 0.000000
vt 1.164701 0.190716
vt 1.164701 0.142587
vt 1.170149 0.142675
vt 1.170149 0.190804
vt 0.072984 0.345654
vt 0.117470 0.385552
vt 0.117865 0.442194
vt 0.069727 0.397621
vt 1.151458 0.413460
vt 1.151458 0.361095
vt 1.176552 0.354316
vt 1.176552 0.408317
vt -0.352888 0.849837
vt -0.320696 0.786717
vt -0.222047 0.870638
vt -0.232742 0.943458
vt -0.190889 0.697736
vt -0.042450 0.581878
vt -0.033760 0.791598
vt -0.157481 0.898163
vt 1.014934 0.241706
vt 1.047173 0.241768
vt 1.052796 0.249337
vt 1.020557 0.249274
vt 1.159717 1.333697
vt 1.159717 1.267052
vt 1.165066 1.268276
vt 1.165066 1.330651
vt 1.130776 0.570258
vt 1.169154 0.570258
vt 1.169152 0.624483
vt 1.130774 0.624483
vt -0.067158 0.537148
vt -0.200130 0.645095
vt 1.201086 -0.025630
vt 1.201086 0.028368
vt 1.089238 0.028821
vt 1.089238 -0.025177
vt 0.000381 0.544558
vt 0.126556 0.651915
vt 0.009072 0.754279
vt 1.013028 -0.330003
vt 1.013028 -0.395502
vt 1.089238 -0.395412
vt 1.089238 -0.329913
vt 0.928392 0.062532
vt 0.928392 0.117553
vt 0.763130 0.117393
vt 0.763130 0.062372
vt 0.342959 1.229020
vt 0.342959 1.294493
vt 0.135718 1.295954
vt 0.135718 1.230480
vt 0.698156 0.806262
vt 0.692648 1.049772
vt 0.559160 1.050923
vt 0.781944 0.825070
vt 0.857392 0.842005
vt 0.853901 1.051200
vt 0.777497 1.050523
vt 0.922730 -0.640632
vt 0.928251 -0.397187
vt 0.843401 -0.396437
vt 0.129316 0.782838
vt 0.026889 0.879541
vt -0.402784 1.151852
vt -0.276248 1.251661
vt -0.296133 1.375826
vt -0.422669 1.276016
vt 1.169137 0.830297
vt 1.130759 0.830297
vt -0.443642 0.906886
vt -0.399824 0.941866
vt -0.446601 1.116871
vt -0.248336 1.049631
vt -0.107695 1.069819
vt -0.107695 1.022177
vt -0.066005 1.021967
vt -0.066005 1.069610
vt 0.070627 1.021361
vt 0.070627 1.069003
vt -0.010454 0.914796
vt -0.134175 1.021360
vt 1.175795 0.958016
vt 1.135486 0.958016
vt -0.460945 1.242803
vt 0.411438 0.655168
vt 0.443663 0.655168
vt 0.451378 0.781536
vt 0.417533 0.781536
vt 0.181482 0.655168
vt 0.176008 0.781536
vt 0.868463 0.830297
vt 0.900701 0.830297
vt 0.893855 0.958016
vt 0.859994 0.958016
vt -0.066005 1.409596
vt 0.070627 1.408990
vt -0.107695 1.409806
vt 0.868477 0.624483
vt 0.900716 0.624483
vt 0.182564 0.451283
vt 0.412519 0.451283
vt 0.342959 0.781536
vt 0.342959 0.836536
vt 0.135718 0.837996
vt 0.135718 0.782997
vt 0.928392 -0.330102
vt 0.763130 -0.330262
vt 1.013028 0.117652
vt 1.013028 0.062631
vt 1.089238 0.062720
vt 1.089238 0.117741
vt 1.201086 -0.394683
vt 1.201086 -0.349323
vt 1.089238 -0.348870
vt 1.089238 -0.394229
vt 0.868480 0.570258
vt 0.900718 0.570258
vt 0.186625 0.396884
vt 0.409615 0.396884
vt 0.135632 1.021361
vt 0.135632 1.066722
vt 0.132779 1.072098
vt 0.132779 1.026737
vt -0.376356 0.895852
vt -0.413918 0.860577
vt -0.411044 0.853492
vt -0.373483 0.888767
vt 0.207658 0.049178
vt 0.394704 0.049178
vt 0.398690 0.192273
vt 0.201902 0.192273
vt 1.060964 -0.827411
vt 1.029567 -0.812341
vt 1.027985 -0.816269
vt 1.059381 -0.831338
vt 1.089289 1.444472
vt 1.089288 1.395179
vt 1.144531 1.380777
vt 1.144532 1.426140
vt 0.647684 1.430447
vt 0.647494 1.106745
vt 0.704908 1.106745
vt 0.705098 1.430447
vt 1.008730 1.023519
vt 0.859996 1.023519
vt 1.008729 0.958016
vt 0.428540 1.295954
vt 0.400729 1.363144
vt 0.390105 1.365107
vt 0.417916 1.297917
vt -0.226917 1.375837
vt -0.226917 1.441336
vt -0.233543 1.441325
vt -0.233543 1.375826
vt 0.821259 1.256167
vt 0.822238 1.205087
vt 0.842309 1.213029
vt 0.839076 1.263247
vt 0.127027 0.439012
vt 0.135718 0.648733
vt 1.239454 1.916108
vt 1.255824 2.124867
vt 1.246413 2.123886
vt 1.230043 1.915126
vt 0.928392 -0.395601
vt 0.763130 -0.395761
vt -0.107695 1.466522
vt -0.066005 1.466312
vt 0.070627 1.465706
vt 0.143122 0.655168
vt 0.135718 0.781536
vt 1.087724 0.118003
vt 1.087724 0.431890
vt 1.083097 0.431824
vt 1.083097 0.117937
vt 1.230335 -0.349611
vt 1.230335 -0.025918
vt 0.477007 1.106239
vt 0.451378 1.106118
vt 0.445477 1.342188
vt 0.445477 1.387548
vt 0.437971 1.387568
vt 0.437971 1.342208
vt 1.392684 1.501546
vt 1.419059 1.502460
vt 1.422812 1.645656
vt 1.395073 1.644711
vt 1.403585 1.849280
vt 1.434864 1.850041
vt 1.438069 1.904379
vt 1.405848 1.903667
vt 1.434712 2.108215
vt 1.402492 2.107503
vt -0.564979 0.754370
vt -0.563831 0.810937
vt -0.569932 0.809252
vt -0.573381 0.751952
vt 1.169276 0.241436
vt 1.169276 0.296456
vt 1.164701 0.296448
vt 1.164701 0.241427
vt 0.842309 1.255198
vt 0.842309 1.204359
vt 0.851434 1.207729
vt 0.851434 1.258568
vt 1.169378 1.045475
vt 1.169378 1.090836
vt 1.163162 1.090838
vt 1.163162 1.045477
vt -0.566790 1.020922
vt -0.572892 1.019238
vt 0.859039 1.207723
vt 0.859039 1.258562
vt 1.365674 1.048107
vt 1.334441 1.049181
vt 1.337535 0.905923
vt 1.370351 0.904714
vt 1.386457 0.699946
vt 1.349270 0.701315
vt 1.352391 0.646917
vt 1.390739 0.645505
vt 1.349680 0.443062
vt 1.388028 0.441650
vt 0.474987 0.680406
vt 0.479517 0.760932
vt 0.464548 0.679992
vt 1.202224 1.502410
vt 1.209739 1.648402
vt 1.189430 1.645988
vt 1.181915 1.499997
vt 1.233213 1.859882
vt 1.221513 1.858600
vt 0.116501 0.246953
vt 0.115981 0.172502
vt 0.135718 0.165344
vt 0.133318 0.240893
vt 0.428540 1.396192
vt 0.428540 1.342163
vt 0.437971 1.396188
vt 0.583733 1.106746
vt 0.583924 1.430447
vt 0.583707 1.061384
vt 0.476981 1.060878
vt 0.527104 1.051199
vt 0.583956 1.484447
vt 0.710098 0.751903
vt 0.898827 -0.749590
vt 0.882433 -0.824321
vt 0.985606 -0.905245
vt 0.910778 -0.695111
vt 1.061615 -0.744614
vt 0.738421 0.622978
vt 0.722040 0.697545
vt 0.591296 0.634776
vt 0.635244 0.542032
vt 1.049015 1.405678
vt 1.049004 1.033468
vt 0.900724 0.441650
vt 1.130782 0.441650
vt 1.130779 0.516033
vt 0.900721 0.516033
vt 1.049016 1.457837
vt 0.868485 0.441650
vt 0.868482 0.516033
vt -0.125759 0.431061
vt -0.091866 0.492419
vt -0.209371 0.592454
vt -0.222047 0.520245
vt 1.169160 0.441650
vt 1.169156 0.516033
vt -0.578971 1.407404
vt -0.547423 1.469529
vt -0.554802 1.468659
vt -0.586350 1.406535
vt 1.047173 0.170148
vt 1.052796 0.177716
vt -0.240539 0.996545
vt -0.032524 0.251026
vt 0.028499 0.305756
vt 0.021589 0.353049
vt -0.044443 0.291907
vt 1.266562 1.065142
vt 0.124697 0.020454
vt 0.106217 0.027139
vt -0.541116 0.376620
vt -0.521617 0.712119
vt -0.516946 0.763820
vt 0.559899 0.619703
vt 0.610466 0.522593
vt 1.097838 -0.756503
vt 1.049002 0.971376
vt 1.000973 0.376546
vt 1.012653 0.430942
vt 1.003787 0.429659
vt 0.992106 0.375262
vt 0.787789 0.769352
vt 0.857747 0.785064
vt 0.984024 -0.909172
vt 1.008800 -0.928606
vt 1.188371 -0.814769
vt 1.188371 -0.769408
vt 1.162742 -0.769559
vt 1.162742 -0.814920
vt 1.083097 0.119002
vt 1.056662 0.144934
vt 1.052796 0.143869
vt 1.079230 0.117937
vt 1.155399 0.115861
vt 1.182025 0.141437
vt 1.178084 0.142587
vt 1.151458 0.117011
vt 1.083097 0.234209
vt 1.079230 0.233144
vt 1.182025 0.028821
vt 1.178084 0.029971
vt -0.318593 -0.833676
vt -0.303290 -0.799042
vt -0.320971 -0.759706
vt -0.335512 -0.791115
vt 1.130166 0.281269
vt 1.092199 0.273553
vt 1.093539 0.223469
vt 1.130386 0.230958
vt -0.343135 -0.870995
vt -0.359293 -0.825209
vt -0.366105 -0.829967
vt -0.349947 -0.875753
vt 0.892107 0.362983
vt 0.859994 0.366743
vt 0.860942 0.316484
vt 0.892107 0.312834
vt -0.333895 -0.868310
vt -0.350054 -0.822524
vt 0.724572 0.361773
vt 0.494514 0.361773
vt 0.498095 0.322056
vt 0.721361 0.322056
vt 1.151458 0.181797
vt 1.151458 0.232558
vt 1.133509 0.238939
vt 1.131239 0.188952
vt 1.162742 -0.569490
vt 1.162742 -0.614123
vt 1.169204 -0.610934
vt 1.169204 -0.566301
vt 0.377691 1.540155
vt 0.147735 1.540155
vt 0.150691 1.490180
vt 0.373859 1.490179
vt 0.793141 0.385695
vt 0.763130 0.386119
vt 0.767174 0.379370
vt 0.797185 0.378946
vt 0.797177 1.225580
vt 0.797946 1.274314
vt -0.271484 1.377148
vt -0.293340 1.406090
vt -0.301568 1.404767
vt -0.279712 1.375826
vt 1.080823 -0.885890
vt 1.113355 -0.826233
vt 1.079123 0.418387
vt 1.079123 0.364387
vt 1.082892 0.370850
vt 1.082892 0.424850
vt 1.158322 0.301381
vt 1.154671 0.219738
vt 1.164701 0.215648
vt 1.164701 0.298684
vt 0.892107 0.117937
vt 0.938325 0.125531
vt 0.938325 0.207386
vt 0.894271 0.200147
vt 1.014934 0.271433
vt 0.976083 0.277483
vt 0.977902 0.195548
vt 1.014934 0.189781
vt 0.070627 1.399299
vt 0.070627 1.075587
vt 0.100964 1.075467
vt 0.100964 1.399180
vt 0.070627 1.444662
vt 0.100964 1.444542
vt 0.400582 0.845573
vt 0.400582 1.219685
vt 1.145887 -0.766575
vt 1.151775 -0.766919
vt 1.139311 -0.685919
vt 0.507511 0.620831
vt 1.010383 -0.924678
vt 1.036198 -0.967725
vt 1.168130 -0.565966
vt 1.168130 -0.509642
vt 1.162742 -0.509976
vt 1.162742 -0.566301
vt 0.390105 1.691876
vt 0.135718 1.691876
vt 1.152909 1.332539
vt 1.159717 1.334974
vt 0.846210 1.051200
vt 0.852993 1.053771
vt 0.979502 0.123455
vt 1.014934 0.117937
vt 0.465145 0.609240
vt 0.451378 0.608775
vt 0.792392 1.089130
vt 0.829069 1.051200
vt 0.938325 0.279408
vt 0.896174 0.272482
vt 0.842309 1.056528
vt -0.268868 -0.951146
vt -0.249127 -0.893384
vt 1.165386 1.223968
vt 1.165386 1.178608
vt 1.170043 1.185923
vt 1.170043 1.231282
vt -0.288610 -1.008909
vt -0.295499 -1.010844
vt 1.098297 -0.937345
vt 1.127009 -0.887587
vt 0.705406 1.179091
vt 0.755716 1.127061
vt 0.772116 1.246073
vt 0.737738 1.274184
vt 0.493850 0.559536
vt 0.494673 0.441650
vt 0.456295 0.441650
vt 0.456136 0.361773
vt 0.584649 0.479535
vt 0.540035 0.561257
vt 0.522556 0.509831
vt 0.561933 0.441650
vt 1.147570 0.028821
vt 1.134230 0.033631
vt 0.451284 0.853524
vt 0.451284 1.211471
vt 1.131239 0.435201
vt 1.089238 0.426664
vt 1.151458 0.147903
vt 1.048085 0.430272
vt 1.012653 0.435790
vt 1.016056 0.282471
vt 1.048085 0.277483
vt 1.155721 -0.837829
vt 1.162742 -0.838190
vt 0.724731 0.441650
vt 0.100964 1.021466
vt 0.127657 1.021361
vt 0.127657 1.075362
vt 0.756970 0.441650
vt 0.756811 0.361773
vt 0.127657 1.399074
vt 1.168385 -0.681277
vt 1.168385 -0.614123
vt 1.162742 -0.618180
vt 1.162742 -0.685334
vt -0.222047 -0.814150
vt -0.282298 -0.751532
vt -0.384193 0.814268
vt -0.061554 0.455183
vt -0.104034 0.393883
vt 1.310565 -0.350401
vt 1.310565 -0.026708
vt -0.222047 1.467097
vt -0.222047 1.410381
vt 1.310565 -0.395761
vt 1.230335 -0.394971
vt -0.222047 1.070395
vt -0.565934 1.151700
vt -0.222047 1.022752
vt -0.030587 0.499871
vt -0.405748 0.652069
vt -0.343420 0.750743
vt 1.310565 0.027290
vt 1.230335 0.028080
vt -0.533045 0.585613
vt -0.498302 0.555269
vt -0.226917 1.455760
vt -0.226917 1.380668
vt -0.222095 1.375826
vt -0.222095 1.450917
vt 0.128852 0.381535
vt 1.217942 1.722304
vt 1.200641 1.720286
vt 1.375979 0.833157
vt 1.341636 0.834422
vt -0.567789 0.615956
vt -0.581818 0.611744
vt 1.398047 1.716198
vt 1.427024 1.717079
vt 0.713475 -0.924445
vt 0.507439 -0.924445
vt 0.498495 -1.010844
vt 0.721584 -1.010844
vt 0.742347 -0.924445
vt 0.752846 -1.010844
vt 0.196564 0.263776
vt 0.402508 0.263776
vt 0.944228 0.138135
vt 0.960656 0.191057
vt 0.954752 0.188963
vt 0.938325 0.136041
vt 0.080954 0.218493
vt -0.450642 0.513645
vt -0.418773 0.611911
vt 1.309309 0.706634
vt 1.301943 0.707345
vt 0.045406 0.190033
vt 0.774632 1.292462
vt -0.539184 0.517657
vt 1.048085 0.418275
vt 1.052965 0.417790
vt 0.713686 -0.875481
vt 0.709119 -0.878034
vt 0.512244 -0.878034
vt 0.479401 -0.878034
vt 1.176250 0.310293
vt 1.176250 0.354316
vt -0.246691 1.428231
vt -0.271484 1.428566
vt 0.647992 1.096561
vt 0.705406 1.096561
vt 0.054488 0.127870
vt 0.085234 0.150185
vt 1.079123 0.277483
vt 1.069555 0.340062
vt 1.064675 0.340546
vt 1.074243 0.277968
vt 0.473069 -0.924445
vt 0.718042 -0.921892
vt 0.012311 0.097258
vt -0.003357 0.150993
vt 1.079123 0.430073
vt 1.074243 0.430558
vt -0.381320 0.807182
vt -0.340546 0.743659
vt -0.317823 0.779632
vt -0.350015 0.842752
vt -0.242234 1.435244
vt -0.242234 1.480604
vt -0.271484 1.480892
vt -0.271484 1.435532
vt 0.970420 0.378773
vt 0.970420 0.302418
vt 0.976083 0.294893
vt 0.976083 0.371248
vt 0.970420 0.434436
vt 0.976083 0.426910
vt 0.938200 0.301728
vt 0.943863 0.294203
vt 1.047173 0.117937
vt 1.052796 0.125506
vt 1.169887 0.193296
vt 1.169887 0.241427
vt 1.164701 0.238936
vt 1.164701 0.190804
vt -0.415475 0.608917
vt -0.402450 0.649075
vt 1.162742 -0.913246
vt 1.162742 -0.957234
vt 1.187836 -0.952571
vt 1.187836 -0.907209
vt -0.402783 1.375826
vt -0.429696 1.443874
vt -0.434358 1.444568
vt -0.407445 1.376520
vt 1.079123 0.360594
vt 1.082968 0.281277
vt 1.082968 0.364387
vt -0.402783 1.466218
vt -0.407445 1.466912
vt 1.172083 -0.684670
vt 1.172083 -0.640355
vt 1.168385 -0.641018
vt 1.168385 -0.685334
vt 0.893528 0.346117
vt 0.895477 0.279408
vt 0.936378 0.286777
vt 0.936378 0.365706
vt 0.741275 -0.875481
vt 0.746914 -0.921892
vt 0.892107 0.394748
vt 0.936378 0.423245
vt 1.062560 0.372834
vt 1.057681 0.373319
vt 1.166144 1.396225
vt 1.166144 1.439348
vt 1.161586 1.437251
vt 1.161586 1.394128
vt 1.166144 1.337071
vt 1.161586 1.334974
vt 0.834350 0.378946
vt 0.778705 0.368871
vt 0.763130 0.252779
vt 0.834350 0.270822
vt -0.510597 1.470685
vt -0.544609 1.463713
vt -0.547423 1.375826
vt -0.510597 1.383374
vt 1.168130 -0.513937
vt 1.168130 -0.566301
vt 1.171670 -0.559475
vt 1.171670 -0.507111
vt 0.976083 0.120031
vt 0.970180 0.117937
vt 1.158532 1.154938
vt 1.158532 1.046390
vt 1.163162 1.154023
vt 0.976083 0.294203
vt 0.970180 0.292109
vt 0.420442 1.456571
vt 0.420442 1.402573
vt 0.449692 1.402285
vt 0.449692 1.456283
vt -0.108465 0.388712
vt -0.065986 0.450012
vt -0.096298 0.487247
vt -0.130190 0.425890
vt -0.547423 1.376695
vt -0.554802 1.375826
vt -0.472734 1.375826
vt -0.503358 1.433033
vt -0.510597 1.433407
vt -0.479974 1.376200
vt -0.472734 1.465582
vt -0.479974 1.465956
vt -0.361708 1.435298
vt -0.402783 1.443789
vt -0.399369 1.377618
vt -0.361708 1.375826
vt 1.162742 -0.453979
vt 1.162742 -0.509642
vt 1.168126 -0.508351
vt 1.168126 -0.456254
vt 1.168503 1.090838
vt 1.168503 1.143049
vt 1.163162 1.142058
vt 1.163162 1.093192
vt 0.833101 0.378946
vt 0.833100 0.439849
vt 0.827748 0.438582
vt 0.827748 0.381581
vt 1.278293 1.063858
vt 0.489756 0.358205
vt 0.493336 0.318488
vt 1.171346 1.379846
vt 1.171346 1.334974
vt 0.859994 0.122600
vt 0.859994 0.436506
vt 0.834900 0.441650
vt 0.834900 0.117937
vt 0.127657 1.345062
vt 0.132779 1.021403
vt 0.132779 1.345105
vt 1.159082 1.416233
vt 1.159082 1.460439
vt 1.152909 1.460463
vt 1.152909 1.416257
vt 1.170520 0.958045
vt 1.170520 1.002214
vt 1.164348 1.002186
vt 1.164348 0.958016
vt 1.076363 -0.891134
vt 1.031737 -0.972969
vt 1.054452 -1.010844
vt 1.093837 -0.942589
vt 1.162742 -0.860283
vt 1.189435 -0.860388
vt 1.189435 -0.815025
vt 1.158532 1.045475
vt 1.158532 0.962314
vt 1.164348 1.041177
vt 1.162742 -0.404058
vt 1.162742 -0.453626
vt 1.168660 -0.453979
vt 1.168660 -0.404411
vt 1.172073 -0.769408
vt 1.172073 -0.724046
vt 1.167925 -0.716621
vt 1.167925 -0.761982
vt 0.763130 0.357207
vt 0.730892 0.357207
vt 0.727681 0.317490
vt 0.758969 0.317490
vt -0.361708 1.446626
vt -0.360868 1.390696
vt -0.331634 1.375826
vt -0.331634 1.427247
vt 1.151458 0.310628
vt 1.156452 0.301715
vt 1.181244 0.301381
vt -0.271484 1.439433
vt -0.279712 1.438110
vt 1.181244 0.345403
vt 1.166144 1.382057
vt 1.166144 1.337186
vt 0.793141 0.439693
vt 0.797185 0.432944
vt 0.614518 0.517795
vt 0.563951 0.614904
vt 0.544086 0.556458
vt 0.588701 0.474737
vt 0.420442 1.402285
vt 0.420442 1.456287
vt 0.390105 1.456406
vt 0.390105 1.402405
vt 0.451328 1.299651
vt 0.451328 1.398875
vt 0.446131 1.395177
vt 0.446131 1.295978
vt 1.169294 1.267052
vt 1.169294 1.321050
vt 1.165066 1.327612
vt 1.165066 1.273614
vt 1.167925 -0.769408
vt 1.167925 -0.689097
vt 1.162742 -0.765645
vt 0.827234 -0.733504
vt 0.819203 -0.810098
vt 0.647716 1.484447
vt 0.766998 -0.395761
vt 0.647467 1.061384
vt 0.801651 0.637205
vt 0.647965 1.051200
vt 0.705379 1.051200
vt 0.833968 0.117741
vt 0.833968 0.195164
vt 0.768689 0.196255
vt 0.776313 0.118718
vt 0.833968 0.251606
vt 1.149882 1.390898
vt 1.149884 1.436260
vt 1.094640 1.454593
vt 1.054367 1.467958
vt 0.984950 0.301928
vt 0.976083 0.300645
vt 1.012653 0.278767
vt 1.003787 0.277483
vt 0.803057 0.625629
vt 0.859994 0.638440
vt -0.434358 1.456612
vt -0.472734 1.456657
vt -0.472734 1.375870
vt -0.434358 1.375826
vt 0.428540 1.400322
vt 0.417916 1.402285
vt 1.152909 1.416106
vt 1.152909 1.334974
vt 1.161585 1.335101
vt 1.161585 1.416233
vt 1.097662 0.975319
vt 1.152907 0.993646
vt 1.152909 1.047647
s 0
usemtl Material.001
f 53/1/1 1/2/1 33/3/1 68/4/1
f 128/5/2 393/6/2 409/7/2 408/8/2
f 395/9/3 268/10/3 401/11/3 403/12/3
f 395/13/4 382/14/4 1/15/4 268/16/4
f 146/17/5 128/18/5 7/19/5 75/20/5
f 119/21/6 9/22/6 37/23/6 123/24/6
f 191/25/7 186/25/7 214/25/7 222/25/7
f 125/26/8 57/27/8 149/28/8 152/29/8
f 277/30/9 120/31/9 10/32/9 269/33/9
f 126/34/10 122/35/10 11/36/10 90/37/10
f 346/38/11 17/39/11 99/40/11 349/41/11
f 196/25/6 197/25/6 227/25/6 208/25/6
f 283/25/6 198/25/6 205/25/6 284/25/6
f 70/42/12 62/43/12 105/44/12 106/45/12
f 176/46/13 56/47/13 102/48/13 181/49/13
f 297/50/14 60/51/14 104/52/14 301/53/14
f 138/54/15 255/55/15 321/56/15 320/57/15
f 260/58/16 17/58/16 99/58/16 104/58/16 60/58/16 78/58/16 113/58/16 114/58/16 18/58/16 271/58/16 135/58/16 19/58/16 92/58/16 61/58/16 20/58/16 136/58/16
f 94/59/17 239/60/17 340/61/17 339/62/17
f 291/63/18 244/64/18 22/65/18 272/66/18
f 249/67/19 245/68/19 23/69/19 93/70/19
f 140/71/6 28/72/6 32/73/6 142/74/6
f 30/75/12 26/76/12 44/77/12 46/78/12
f 64/79/20 28/80/20 309/81/20 308/82/20
f 231/83/21 26/84/21 342/85/21 343/86/21
f 265/87/22 274/88/22 30/89/22 80/90/22
f 273/91/12 26/76/12 30/75/12 274/92/12
f 94/93/23 27/94/23 31/95/23 95/96/23
f 231/97/12 22/65/12 42/98/12 233/99/12
f 391/100/24 387/101/24 36/102/24 96/103/24
f 67/104/25 34/105/25 40/106/25 69/107/25
f 76/108/26 10/109/26 39/110/26 82/111/26
f 120/31/12 4/112/12 35/113/12 124/114/12
f 383/115/12 3/116/12 36/117/12 387/118/12
f 382/14/6 2/119/6 34/120/6 386/121/6
f 233/99/27 42/98/27 48/122/27 235/123/27
f 43/124/28 45/125/28 51/126/28 49/127/28
f 187/25/6 210/25/6 220/25/6 192/25/6
f 80/90/29 30/89/29 46/128/29 84/129/29
f 230/130/6 25/131/6 43/124/6 232/132/6
f 25/131/6 29/133/6 45/125/6 43/124/6
f 236/134/30 234/135/30 49/136/30 73/137/30
f 73/137/31 49/136/31 51/138/31 74/139/31
f 46/78/32 44/77/32 50/140/32 52/141/32
f 84/129/5 46/128/5 52/142/5 87/143/5
f 232/132/33 43/124/33 49/127/33 234/144/33
f 70/145/34 41/146/34 47/147/34 72/148/34
f 83/149/34 70/145/34 72/148/34 85/150/34
f 45/151/5 71/152/5 74/153/5 51/154/5
f 86/155/31 73/137/31 74/139/31 87/156/31
f 238/157/30 236/134/30 73/137/30 86/155/30
f 29/158/29 65/159/29 71/152/29 45/151/29
f 79/160/35 62/161/35 70/145/35 83/149/35
f 9/162/26 56/163/26 69/164/26 40/165/26
f 81/166/25 67/104/25 69/107/25 82/167/25
f 386/168/24 388/169/24 68/170/24 33/171/24
f 28/172/23 64/173/23 66/174/23 32/175/23
f 263/176/22 264/177/22 65/159/22 29/158/22
f 248/178/36 246/179/36 62/161/36 79/160/36
f 63/180/37 24/181/37 317/182/37 316/183/37
f 262/184/38 288/185/38 315/186/38 314/187/38
f 348/188/39 347/189/39 60/190/39 78/191/39
f 190/25/7 188/25/7 200/25/7 216/25/7
f 132/192/40 148/193/40 154/194/40 153/195/40
f 197/25/7 189/25/7 224/25/7 227/25/7
f 130/196/5 144/197/5 55/198/5 5/199/5
f 390/200/41 389/201/41 55/202/41 75/203/41
f 88/204/1 53/1/1 68/4/1 96/205/1
f 3/206/1 88/204/1 96/205/1 36/154/1
f 393/207/42 384/208/42 404/209/42 409/210/42
f 10/211/43 76/212/43 109/213/43 110/214/43
f 157/215/44 14/216/44 112/217/44 168/218/44
f 42/98/12 22/65/12 116/219/12 117/220/12
f 79/221/6 83/222/6 118/223/6 115/224/6
f 35/225/25 81/166/25 82/167/25 39/226/25
f 235/227/30 238/157/30 86/155/30 50/228/30
f 50/228/31 86/155/31 87/156/31 52/229/31
f 42/230/34 83/149/34 85/150/34 48/231/34
f 71/152/5 84/129/5 87/143/5 74/153/5
f 65/159/29 80/90/29 84/129/29 71/152/29
f 56/163/26 76/108/26 82/111/26 69/164/26
f 388/169/24 391/100/24 96/103/24 68/170/24
f 64/173/23 94/93/23 95/96/23 66/174/23
f 264/177/22 265/87/22 80/90/22 65/159/22
f 247/232/45 249/233/45 358/234/45 357/235/45
f 237/236/46 239/237/46 94/93/46 64/173/46
f 125/238/10 126/34/10 90/37/10 57/239/10
f 189/25/7 191/25/7 222/25/7 224/25/7
f 144/197/5 146/17/5 75/20/5 55/198/5
f 193/25/7 192/25/7 220/25/7 202/25/7
f 103/240/47 98/241/47 107/242/47 108/243/47
f 350/244/48 349/245/48 99/246/48 104/247/48
f 251/248/49 250/249/49 100/250/49 105/251/49
f 105/251/35 100/250/35 101/252/35 106/253/35
f 243/254/50 21/255/50 100/256/50 250/257/50
f 56/258/51 9/259/51 97/260/51 102/261/51
f 160/262/52 58/263/52 103/264/52 165/265/52
f 41/266/53 70/267/53 106/268/53 101/269/53
f 21/255/6 41/270/6 101/271/6 100/256/6
f 165/265/54 103/264/54 108/272/54 167/273/54
f 199/25/7 194/25/7 218/25/7 207/25/7
f 354/274/55 351/275/55 113/276/55 114/277/55
f 252/278/56 253/279/56 115/280/56 116/281/56
f 116/281/35 115/280/35 118/282/35 117/283/35
f 175/284/57 10/32/57 110/285/57 182/286/57
f 348/287/58 78/288/58 113/289/58 351/290/58
f 248/291/59 79/221/59 115/224/59 253/292/59
f 296/293/60 18/294/60 114/295/60 302/296/60
f 83/297/61 42/298/61 117/243/61 118/299/61
f 190/25/6 216/25/6 218/25/6 194/25/6
f 54/300/10 89/301/10 126/34/10 125/238/10
f 6/302/10 54/300/10 125/238/10 121/303/10
f 10/32/12 120/31/12 124/114/12 38/304/12
f 89/301/10 8/305/10 122/35/10 126/34/10
f 267/306/62 4/112/62 120/31/62 277/30/62
f 129/307/63 6/308/63 121/309/63 148/193/63
f 2/119/6 119/21/6 123/24/6 34/120/6
f 257/310/64 129/307/64 148/193/64 266/311/64
f 8/312/65 127/313/65 147/314/65 122/315/65
f 275/316/5 276/317/5 146/17/5 144/197/5
f 66/318/22 95/319/22 145/320/22 143/321/22
f 268/322/5 275/316/5 144/197/5 130/196/5
f 32/323/22 66/318/22 143/321/22 142/324/22
f 27/325/12 139/326/12 141/327/12 31/328/12
f 95/319/22 31/329/22 141/330/22 145/320/22
f 228/331/66 240/332/66 341/333/66 338/334/66
f 28/80/67 140/335/67 311/336/67 309/81/67
f 262/184/6 140/71/6 142/74/6 263/337/6
f 245/338/68 254/339/68 137/340/68 23/341/68
f 346/38/69 349/245/69 350/342/69 347/189/69 348/287/69 351/275/69 354/343/69 353/344/69 352/345/69
f 290/346/70 255/55/70 138/54/70 261/347/70
f 186/25/6 195/25/6 212/25/6 214/25/6
f 282/25/6 196/25/6 208/25/6 285/25/6
f 122/315/71 147/314/71 131/348/71 11/349/71
f 266/311/72 148/193/72 132/192/72 258/350/72
f 276/317/5 256/351/5 128/18/5 146/17/5
f 392/352/73 395/353/73 403/354/73 402/355/73
f 394/356/74 393/6/74 128/5/74 256/357/74
f 154/194/75 151/358/75 150/359/75 153/195/75
f 151/360/10 152/361/10 149/362/10 150/363/10
f 57/364/76 12/365/76 150/366/76 149/367/76
f 121/368/77 125/369/77 152/370/77 151/371/77
f 12/365/78 132/372/78 153/373/78 150/366/78
f 148/374/79 121/368/79 151/371/79 154/375/79
f 259/376/80 134/377/80 171/378/80 278/379/80
f 112/380/81 111/381/81 169/382/81 168/383/81
f 98/384/82 164/385/82 166/386/82 107/387/82
f 108/388/83 107/389/83 166/390/83 167/391/83
f 13/392/84 159/393/84 164/385/84 98/384/84
f 59/394/85 91/395/85 163/396/85 161/397/85
f 77/398/86 162/399/86 169/400/86 111/401/86
f 171/402/87 134/403/87 367/404/87 370/405/87
f 77/406/83 58/407/83 160/408/83 162/409/83
f 15/410/88 133/411/88 371/412/88 372/413/88
f 270/414/89 14/216/89 157/215/89 279/415/89
f 134/416/90 16/417/90 366/418/90 367/419/90
f 258/350/91 132/192/91 185/420/91 280/421/91
f 172/422/92 179/423/92 380/424/92 379/425/92
f 76/426/93 178/427/93 183/428/93 109/429/93
f 198/25/6 204/25/6 206/25/6 199/25/6
f 110/430/94 109/431/94 183/432/94 182/433/94
f 102/434/95 97/435/95 180/436/95 181/437/95
f 57/438/96 90/439/96 179/440/96 177/441/96
f 12/442/96 57/438/96 177/441/96 173/443/96
f 76/108/97 56/163/97 176/444/97 178/445/97
f 9/22/98 174/446/98 180/447/98 97/448/98
f 188/25/6 201/25/6 203/25/6 193/25/6
f 269/33/99 10/32/99 175/284/99 281/449/99
f 132/192/100 12/450/100 173/451/100 185/420/100
f 179/452/101 90/453/101 378/454/101 380/455/101
f 200/25/6 188/25/6 193/25/6 202/25/6
f 205/25/6 198/25/6 199/25/6 207/25/6
f 286/25/6 209/25/6 196/25/6 282/25/6
f 215/25/6 213/25/6 195/25/6 186/25/6
f 217/25/6 190/25/6 194/25/6 219/25/6
f 206/25/7 219/25/7 194/25/7 199/25/7
f 203/25/7 221/25/7 192/25/7 193/25/7
f 225/25/7 223/25/7 191/25/7 189/25/7
f 226/25/7 225/25/7 189/25/7 197/25/7
f 217/25/7 201/25/7 188/25/7 190/25/7
f 211/25/6 187/25/6 192/25/6 221/25/6
f 287/25/6 204/25/6 198/25/6 283/25/6
f 209/25/6 226/25/6 197/25/6 196/25/6
f 223/25/7 215/25/7 186/25/7 191/25/7
f 216/456/97 200/457/97 58/407/97 77/406/97
f 201/458/102 176/46/102 181/49/102 203/459/102
f 58/263/103 200/460/103 202/461/103 103/264/103
f 181/437/95 180/436/95 221/462/95 203/463/95
f 204/464/104 175/284/104 182/286/104 206/465/104
f 284/466/105 205/467/105 14/216/105 270/414/105
f 182/433/94 183/432/94 219/468/94 206/469/94
f 14/216/106 205/467/106 207/470/106 112/217/106
f 285/471/107 208/472/107 134/377/107 259/376/107
f 173/473/108 177/474/108 359/475/108 360/476/108
f 210/477/109 13/392/109 98/384/109 220/478/109
f 280/421/110 185/420/110 209/479/110 286/480/110
f 214/481/111 212/482/111 133/483/111 15/484/111
f 281/449/112 175/284/112 204/464/112 287/485/112
f 222/486/96 214/487/96 15/488/96 91/395/96
f 172/489/113 184/490/113 213/491/113 215/492/113
f 216/493/114 77/398/114 111/401/114 218/494/114
f 178/445/97 176/444/97 201/495/97 217/496/97
f 207/497/94 218/498/94 111/381/94 112/380/94
f 178/427/115 217/499/115 219/60/115 183/428/115
f 202/500/95 220/501/95 98/502/95 103/503/95
f 174/446/116 211/504/116 221/505/116 180/447/116
f 224/506/96 222/486/96 91/395/96 59/394/96
f 179/440/96 172/507/96 215/508/96 223/509/96
f 227/510/96 224/506/96 59/394/96 16/511/96
f 177/441/96 179/440/96 223/509/96 225/512/96
f 226/513/117 209/514/117 362/515/117 364/516/117
f 208/472/118 227/517/118 16/518/118 134/377/118
f 261/347/6 138/54/6 241/519/6 288/185/6
f 23/341/12 137/340/12 240/520/12 228/521/12
f 63/522/46 93/523/46 239/237/46 237/236/46
f 48/524/30 85/525/30 238/157/30 235/227/30
f 24/526/46 63/522/46 237/236/46 229/527/46
f 85/525/30 72/528/30 236/134/30 238/157/30
f 41/270/119 232/132/119 234/144/119 47/529/119
f 72/528/30 47/530/30 234/135/30 236/134/30
f 21/255/6 230/130/6 232/132/6 41/270/6
f 44/77/120 233/99/120 235/123/120 50/140/120
f 26/76/12 231/97/12 233/99/12 44/77/12
f 272/66/12 22/65/12 231/97/12 289/531/12
f 138/54/6 24/532/6 229/533/6 241/519/6
f 93/523/46 23/534/46 228/535/46 239/237/46
f 307/536/121 305/537/121 255/55/121 290/346/121
f 254/538/122 245/539/122 334/540/122 333/541/122
f 22/65/123 244/64/123 252/542/123 116/219/123
f 299/543/124 248/291/124 253/292/124 303/544/124
f 302/545/56 303/546/56 253/279/56 252/278/56
f 292/547/125 243/254/125 250/257/125 294/548/125
f 301/549/126 294/550/126 250/249/126 251/248/126
f 298/551/19 300/552/19 249/553/19 247/554/19
f 295/555/19 298/551/19 247/554/19 242/556/19
f 299/557/36 297/558/36 246/179/36 248/178/36
f 293/559/127 304/560/127 332/561/127 335/562/127
f 306/563/128 296/293/128 244/64/128 291/63/128
f 305/537/129 295/564/129 242/565/129 255/55/129
f 62/43/130 246/566/130 251/567/130 105/44/130
f 304/568/131 306/563/131 291/63/131 254/339/131
f 292/547/132 307/536/132 290/346/132 243/254/132
f 137/340/12 272/66/12 289/531/12 240/520/12
f 21/255/6 261/347/6 288/185/6 230/130/6
f 184/490/133 281/449/133 287/485/133 213/491/133
f 174/446/134 280/421/134 286/480/134 211/504/134
f 210/477/135 285/471/135 259/376/135 13/392/135
f 212/482/136 284/466/136 270/414/136 133/483/136
f 213/25/6 287/25/6 283/25/6 195/25/6
f 211/25/6 286/25/6 282/25/6 187/25/6
f 131/348/137 269/33/137 281/449/137 184/490/137
f 9/22/138 258/350/138 280/421/138 174/446/138
f 133/483/139 270/414/139 279/415/139 170/569/139
f 13/392/140 259/376/140 278/379/140 156/393/140
f 383/115/141 394/356/141 256/357/141 3/116/141
f 88/204/5 3/206/5 256/351/5 276/317/5
f 119/21/142 266/311/142 258/350/142 9/22/142
f 187/25/6 282/25/6 285/25/6 210/25/6
f 243/254/143 290/346/143 261/347/143 21/255/143
f 346/38/144 352/345/144 260/570/144 17/39/144
f 25/131/6 262/184/6 263/337/6 29/133/6
f 230/130/6 288/185/6 262/184/6 25/131/6
f 1/2/5 53/1/5 275/316/5 268/322/5
f 53/1/5 88/204/5 276/317/5 275/316/5
f 2/119/145 257/310/145 266/311/145 119/21/145
f 127/313/146 267/306/146 277/30/146 147/314/146
f 143/321/22 145/320/22 265/87/22 264/177/22
f 142/324/22 143/321/22 264/177/22 263/176/22
f 139/326/12 273/91/12 274/92/12 141/327/12
f 145/320/22 141/330/22 274/88/22 265/87/22
f 240/520/12 289/531/12 273/91/12 139/326/12
f 254/339/147 291/63/147 272/66/147 137/340/147
f 353/344/148 352/345/148 323/571/148 20/572/148 322/573/148 61/574/148 92/575/148 19/576/148
f 155/577/149 161/578/149 163/396/149 158/579/149 170/580/149 279/415/149 157/215/149 168/218/149 169/382/149 162/399/149 160/408/149 165/265/149 167/273/149 166/390/149 164/385/149 156/393/149 278/379/149 171/378/149
f 195/25/6 283/25/6 284/25/6 212/25/6
f 147/314/150 277/30/150 269/33/150 131/348/150
f 55/202/151 389/201/151 400/581/151 399/582/151
f 17/39/152 260/570/152 307/536/152 292/547/152
f 135/583/153 271/584/153 306/563/153 304/568/153
f 307/585/154 260/586/154 325/587/154 329/588/154
f 271/584/155 18/294/155 296/293/155 306/563/155
f 92/575/19 19/576/19 293/589/19 300/552/19
f 78/191/36 60/190/36 297/558/36 299/557/36
f 61/574/156 298/551/156 327/590/156 322/573/156
f 61/574/19 92/575/19 300/552/19 298/551/19
f 104/247/157 99/246/157 294/550/157 301/549/157
f 17/39/158 292/547/158 294/548/158 99/40/158
f 114/277/56 113/276/56 303/546/56 302/545/56
f 78/288/159 299/543/159 303/544/159 113/289/159
f 19/591/160 135/583/160 304/568/160 293/592/160
f 20/572/161 61/593/161 322/594/161 323/571/161
f 244/64/162 296/293/162 302/296/162 252/542/162
f 246/566/163 297/50/163 301/53/163 251/567/163
f 312/595/6 313/596/6 309/597/6 311/598/6
f 313/599/46 310/600/46 308/601/46 309/602/46
f 315/186/6 312/595/6 311/598/6 314/187/6
f 241/603/164 229/604/164 313/605/164 312/606/164
f 288/607/165 241/603/165 312/606/165 315/608/165
f 229/604/166 237/609/166 310/610/166 313/605/166
f 140/335/67 262/611/67 314/612/67 311/336/67
f 237/613/167 64/614/167 308/615/167 310/616/167
f 321/56/168 318/617/168 317/618/168 320/57/168
f 318/619/19 319/620/19 316/621/19 317/622/19
f 255/623/169 242/624/169 318/625/169 321/626/169
f 24/627/170 138/585/170 320/628/170 317/629/170
f 242/624/171 247/630/171 319/631/171 318/625/171
f 247/632/172 63/633/172 316/634/172 319/635/172
f 324/636/173 323/637/173 326/638/173 328/639/173
f 323/640/19 322/573/19 327/590/19 326/641/19
f 325/642/174 324/636/174 328/639/174 329/643/174
f 260/586/175 136/644/175 324/645/175 325/587/175
f 298/551/176 295/555/176 326/641/176 327/590/176
f 136/644/175 20/572/175 323/571/175 324/645/175
f 305/646/177 307/647/177 329/648/177 328/649/177
f 295/650/177 305/646/177 328/649/177 326/651/177
f 335/652/178 332/653/178 333/654/178 334/655/178
f 330/656/19 335/657/19 334/658/19 331/659/19
f 245/660/179 249/661/179 331/662/179 334/663/179
f 300/664/180 293/559/180 335/562/180 330/665/180
f 249/666/181 300/667/181 330/269/181 331/668/181
f 304/560/182 254/669/182 333/670/182 332/561/182
f 340/671/46 338/672/46 337/673/46 339/674/46
f 338/675/12 341/676/12 336/677/12 337/678/12
f 239/679/183 228/331/183 338/334/183 340/680/183
f 139/681/184 27/682/184 337/683/184 336/684/184
f 27/682/185 94/685/185 339/686/185 337/683/185
f 240/520/186 139/326/186 336/677/186 341/676/186
f 345/687/12 343/688/12 342/689/12 344/690/12
f 289/691/187 231/692/187 343/693/187 345/694/187
f 26/695/188 273/696/188 344/697/188 342/698/188
f 273/699/189 289/700/189 345/701/189 344/702/189
f 60/51/190 347/703/190 350/342/190 104/52/190
f 18/294/191 353/344/191 354/343/191 114/295/191
f 260/58/192 325/58/192 323/58/192 352/58/192
f 19/576/193 353/344/193 18/294/193
f 373/704/194 15/58/194 158/58/194 374/705/194
f 371/706/195 375/707/195 158/58/195 15/58/195
f 357/708/19 358/709/19 355/710/19 356/711/19
f 93/712/196 63/508/196 356/713/196 355/714/196
f 249/715/197 93/716/197 355/717/197 358/718/197
f 63/719/198 247/720/198 357/721/198 356/722/198
f 361/723/199 360/724/199 364/725/199 362/726/199
f 360/363/96 359/727/96 363/728/96 364/729/96
f 209/479/200 185/420/200 361/723/200 362/726/200
f 185/730/201 173/731/201 360/722/201 361/732/201
f 177/733/202 225/734/202 363/735/202 359/736/202
f 225/737/203 226/738/203 364/739/203 363/740/203
f 366/741/85 365/742/85 369/743/85 368/744/85
f 367/745/204 366/746/204 368/747/204 370/748/204
f 155/577/205 171/749/205 370/750/205 368/751/205
f 16/417/206 59/752/206 365/753/206 366/418/206
f 161/578/207 155/577/207 368/751/207 369/754/207
f 59/394/208 161/397/208 369/743/208 365/742/208
f 163/396/209 91/395/209 373/704/209 374/705/209
f 133/755/210 170/756/210 375/707/210 371/706/210
f 91/757/211 15/410/211 372/413/211 373/758/211
f 377/759/212 376/760/212 381/761/212 379/762/212
f 378/763/96 377/764/96 379/765/96 380/766/96
f 11/767/213 131/768/213 376/769/213 377/770/213
f 131/348/214 184/490/214 381/761/214 376/760/214
f 90/771/215 11/772/215 377/773/215 378/774/215
f 184/775/216 172/776/216 379/516/216 381/777/216
f 129/307/217 257/310/217 395/13/217 392/778/217
f 4/112/218 267/306/218 394/356/218 383/115/218
f 267/306/219 127/313/219 393/6/219 394/356/219
f 6/308/217 129/307/217 392/778/217 385/779/217
f 67/104/24 81/166/24 391/100/24 388/169/24
f 8/305/41 89/301/41 390/200/41 384/780/41
f 89/301/41 54/300/41 389/201/41 390/200/41
f 34/105/24 67/104/24 388/169/24 386/168/24
f 1/15/6 382/14/6 386/121/6 33/781/6
f 4/112/12 383/115/12 387/118/12 35/113/12
f 81/166/24 35/225/24 387/101/24 391/100/24
f 257/310/220 2/119/220 382/14/220 395/13/220
f 54/300/41 6/302/41 385/782/41 389/201/41
f 127/313/219 8/312/219 384/783/219 393/6/219
f 400/581/41 396/784/41 397/785/41 399/582/41
f 396/786/221 402/787/221 398/788/221 397/789/221
f 402/787/221 403/790/221 401/654/221 398/788/221
f 5/199/222 55/198/222 399/791/222 397/792/222
f 268/322/223 130/196/223 398/793/223 401/794/223
f 385/795/73 392/352/73 402/355/73 396/796/73
f 130/196/223 5/199/223 397/792/223 398/793/223
f 389/797/224 385/795/224 396/796/224 400/798/224
f 409/7/74 404/799/74 405/800/74 408/8/74
f 404/801/41 407/802/41 406/803/41 405/804/41
f 384/208/224 390/805/224 407/806/224 404/209/224
f 390/807/225 75/808/225 406/809/225 407/810/225
f 7/19/226 128/18/226 408/811/226 405/812/226
f 75/20/222 7/19/222 405/812/222 406/813/222
